<svg xmlns="http://www.w3.org/2000/svg" viewBox="0 0 800 450" width="800" height="450">
  <defs>
    <linearGradient id="bg3" x1="0%" y1="0%" x2="100%" y2="100%">
      <stop offset="0%" style="stop-color:#0f1117"/>
      <stop offset="100%" style="stop-color:#1c0a00"/>
    </linearGradient>
    <linearGradient id="shield" x1="0%" y1="0%" x2="100%" y2="100%">
      <stop offset="0%" style="stop-color:#f59e0b"/>
      <stop offset="100%" style="stop-color:#d97706"/>
    </linearGradient>
    <radialGradient id="glow" cx="50%" cy="50%" r="50%">
      <stop offset="0%" style="stop-color:#f59e0b;stop-opacity:0.15"/>
      <stop offset="100%" style="stop-color:#f59e0b;stop-opacity:0"/>
    </radialGradient>
  </defs>

  <!-- Background -->
  <rect width="800" height="450" fill="url(#bg3)"/>

  <!-- Glow effect behind shield -->
  <ellipse cx="400" cy="225" rx="200" ry="180" fill="url(#glow)"/>

  <!-- Top bar -->
  <rect x="0" y="0" width="800" height="48" fill="#110800" rx="0"/>
  <circle cx="28" cy="24" r="10" fill="#f59e0b"/>
  <text x="46" y="29" font-family="monospace" font-size="14" font-weight="bold" fill="#e2e8f0">SFMS — Secure File Manager</text>
  <rect x="620" y="12" width="160" height="24" rx="12" fill="#f59e0b" opacity="0.15" stroke="#f59e0b" stroke-width="1"/>
  <text x="632" y="28" font-family="monospace" font-size="10" fill="#f59e0b">Defense-in-Depth</text>

  <!-- Left: File list panel -->
  <rect x="20" y="64" width="200" height="360" rx="12" fill="#110800" stroke="#f59e0b" stroke-width="1" stroke-opacity="0.3"/>
  <text x="36" y="88" font-family="monospace" font-size="11" font-weight="bold" fill="#e2e8f0">My Encrypted Files</text>

  <!-- File rows -->
  <rect x="30" y="98" width="180" height="30" rx="6" fill="#f59e0b" opacity="0.1"/>
  <rect x="36" y="106" width="16" height="16" rx="2" fill="#f59e0b" opacity="0.6"/>
  <text x="60" y="118" font-family="monospace" font-size="10" fill="#e2e8f0">report_2026.pdf</text>
  <text x="60" y="128" font-family="monospace" font-size="8" fill="#f59e0b">🔒 AES-256</text>

  <rect x="30" y="136" width="180" height="30" rx="6" fill="#1a0e00"/>
  <rect x="36" y="144" width="16" height="16" rx="2" fill="#d97706" opacity="0.5"/>
  <text x="60" y="156" font-family="monospace" font-size="10" fill="#9ca3af">data_backup.zip</text>
  <text x="60" y="166" font-family="monospace" font-size="8" fill="#f59e0b">🔒 Encrypted</text>

  <rect x="30" y="174" width="180" height="30" rx="6" fill="#1a0e00"/>
  <rect x="36" y="182" width="16" height="16" rx="2" fill="#d97706" opacity="0.5"/>
  <text x="60" y="194" font-family="monospace" font-size="10" fill="#9ca3af">invoice_march.xlsx</text>
  <text x="60" y="204" font-family="monospace" font-size="8" fill="#f59e0b">🔒 Encrypted</text>

  <rect x="30" y="212" width="180" height="30" rx="6" fill="#1a0e00"/>
  <rect x="36" y="220" width="16" height="16" rx="2" fill="#d97706" opacity="0.5"/>
  <text x="60" y="232" font-family="monospace" font-size="10" fill="#9ca3af">notes_private.txt</text>
  <text x="60" y="242" font-family="monospace" font-size="8" fill="#f59e0b">🔒 Encrypted</text>

  <!-- Upload area -->
  <rect x="30" y="260" width="180" height="60" rx="8" fill="#1a0e00" stroke="#f59e0b" stroke-width="1" stroke-dasharray="4,3" stroke-opacity="0.5"/>
  <text x="95" y="286" font-family="monospace" font-size="18" fill="#f59e0b" opacity="0.6">↑</text>
  <text x="68" y="308" font-family="monospace" font-size="9" fill="#6b7280">Drop file to encrypt</text>

  <!-- Audit log -->
  <text x="36" y="346" font-family="monospace" font-size="9" fill="#6b7280">AUDIT LOG</text>
  <text x="36" y="362" font-family="monospace" font-size="8" fill="#10b981">✓ login — 09:14 AM</text>
  <text x="36" y="376" font-family="monospace" font-size="8" fill="#10b981">✓ upload — 09:16 AM</text>
  <text x="36" y="390" font-family="monospace" font-size="8" fill="#10b981">✓ download — 09:22 AM</text>

  <!-- Center: Shield with layers -->
  <!-- Outer ring -->
  <circle cx="400" cy="225" r="130" fill="none" stroke="#f59e0b" stroke-width="1" stroke-opacity="0.15" stroke-dasharray="6,4"/>
  <!-- Middle ring -->
  <circle cx="400" cy="225" r="100" fill="none" stroke="#f59e0b" stroke-width="1" stroke-opacity="0.25" stroke-dasharray="4,3"/>
  <!-- Inner ring -->
  <circle cx="400" cy="225" r="70" fill="none" stroke="#f59e0b" stroke-width="1.5" stroke-opacity="0.4"/>

  <!-- Shield shape -->
  <path d="M400 135 L440 150 L440 210 Q440 250 400 270 Q360 250 360 210 L360 150 Z" fill="#f59e0b" opacity="0.15" stroke="#f59e0b" stroke-width="2" stroke-opacity="0.8"/>
  <!-- Shield inner detail -->
  <path d="M400 148 L430 160 L430 210 Q430 240 400 255 Q370 240 370 210 L370 160 Z" fill="#f59e0b" opacity="0.05"/>
  <!-- Lock icon inside shield -->
  <rect x="387" y="190" width="26" height="20" rx="3" fill="#f59e0b" opacity="0.8"/>
  <path d="M392 190 L392 184 Q392 178 400 178 Q408 178 408 184 L408 190" fill="none" stroke="#f59e0b" stroke-width="2.5" stroke-opacity="0.9"/>
  <circle cx="400" cy="200" r="3" fill="#110800"/>

  <!-- Layer labels around shield -->
  <text x="270" y="175" font-family="monospace" font-size="9" fill="#f59e0b" text-anchor="middle">Layer 1</text>
  <text x="270" y="188" font-family="monospace" font-size="9" fill="#9ca3af" text-anchor="middle">AES Encryption</text>

  <text x="530" y="175" font-family="monospace" font-size="9" fill="#f59e0b" text-anchor="middle">Layer 2</text>
  <text x="530" y="188" font-family="monospace" font-size="9" fill="#9ca3af" text-anchor="middle">SQL Injection</text>
  <text x="530" y="199" font-family="monospace" font-size="9" fill="#9ca3af" text-anchor="middle">Prevention</text>

  <text x="270" y="290" font-family="monospace" font-size="9" fill="#f59e0b" text-anchor="middle">Layer 3</text>
  <text x="270" y="303" font-family="monospace" font-size="9" fill="#9ca3af" text-anchor="middle">IDOR Prevention</text>

  <text x="530" y="290" font-family="monospace" font-size="9" fill="#f59e0b" text-anchor="middle">Layer 4</text>
  <text x="530" y="303" font-family="monospace" font-size="9" fill="#9ca3af" text-anchor="middle">Audit Logging</text>

  <!-- AES label below shield -->
  <rect x="356" y="278" width="88" height="20" rx="10" fill="#f59e0b" opacity="0.2" stroke="#f59e0b" stroke-width="1"/>
  <text x="372" y="292" font-family="monospace" font-size="10" fill="#f59e0b" font-weight="bold">AES-256</text>

  <!-- OWASP badge bottom center -->
  <rect x="340" y="308" width="120" height="22" rx="11" fill="#110800" stroke="#f59e0b" stroke-width="1"/>
  <text x="356" y="323" font-family="monospace" font-size="9" fill="#f59e0b">OWASP Top 10 Tested</text>

  <!-- Right panel: Security features summary -->
  <rect x="580" y="64" width="200" height="360" rx="12" fill="#110800" stroke="#f59e0b" stroke-width="1" stroke-opacity="0.3"/>
  <text x="596" y="88" font-family="monospace" font-size="11" font-weight="bold" fill="#e2e8f0">Security Features</text>

  <rect x="592" y="98" width="176" height="44" rx="6" fill="#1a0e00" stroke="#f59e0b" stroke-width="1" stroke-opacity="0.3"/>
  <text x="606" y="116" font-family="monospace" font-size="10" fill="#f59e0b" font-weight="bold">AES File Encryption</text>
  <text x="606" y="130" font-family="monospace" font-size="8" fill="#6b7280">Server-side + filename random</text>

  <rect x="592" y="150" width="176" height="44" rx="6" fill="#1a0e00" stroke="#d97706" stroke-width="1" stroke-opacity="0.3"/>
  <text x="606" y="168" font-family="monospace" font-size="10" fill="#f59e0b" font-weight="bold">PHP PDO Prepared</text>
  <text x="606" y="182" font-family="monospace" font-size="8" fill="#6b7280">SQL injection prevention</text>

  <rect x="592" y="202" width="176" height="44" rx="6" fill="#1a0e00" stroke="#f59e0b" stroke-width="1" stroke-opacity="0.3"/>
  <text x="606" y="220" font-family="monospace" font-size="10" fill="#f59e0b" font-weight="bold">IDOR Prevention</text>
  <text x="606" y="234" font-family="monospace" font-size="8" fill="#6b7280">Randomized file names</text>

  <rect x="592" y="254" width="176" height="44" rx="6" fill="#1a0e00" stroke="#d97706" stroke-width="1" stroke-opacity="0.3"/>
  <text x="606" y="272" font-family="monospace" font-size="10" fill="#f59e0b" font-weight="bold">Audit Logging</text>
  <text x="606" y="286" font-family="monospace" font-size="8" fill="#6b7280">All events tracked</text>

  <rect x="592" y="306" width="176" height="44" rx="6" fill="#1a0e00" stroke="#f59e0b" stroke-width="1" stroke-opacity="0.3"/>
  <text x="606" y="324" font-family="monospace" font-size="10" fill="#f59e0b" font-weight="bold">OWASP ZAP Scanned</text>
  <text x="606" y="338" font-family="monospace" font-size="8" fill="#6b7280">Automated + manual testing</text>

  <text x="596" y="394" font-family="monospace" font-size="9" fill="#6b7280">PHP  •  MySQL  •  OWASP Top 10</text>
</svg>
